<svg xmlns="http://www.w3.org/2000/svg" xmlns:xlink="http://www.w3.org/1999/xlink" width="1024" zoomAndPan="magnify" viewBox="0 0 768 207.000001" height="276" preserveAspectRatio="xMidYMid meet" version="1.0"><defs><g/></defs><g fill="#ff914d" fill-opacity="1"><g transform="translate(100.501827, 180.893347)"><g><path d="M 11.703125 -0.453125 L 5.640625 -155.390625 L 77.5 -158.203125 L 78.5625 -130.96875 L 37.796875 -129.375 L 39.34375 -89.96875 L 75.140625 -91.375 L 76.203125 -64.109375 L 40.40625 -62.703125 L 42.796875 -1.671875 Z M 11.703125 -0.453125 "/></g></g></g><g fill="#ff914d" fill-opacity="1"><g transform="translate(187.928019, 177.561717)"><g><path d="M 11.953125 -0.328125 L 7.65625 -155.328125 L 38.515625 -156.1875 L 42.8125 -1.1875 Z M 11.953125 -0.328125 "/></g></g></g><g fill="#ff914d" fill-opacity="1"><g transform="translate(241.780772, 175.945776)"><g><path d="M 31.5625 -0.5 L 29.546875 -127.375 L 0.234375 -126.90625 L -0.203125 -155.078125 L 89.484375 -156.5 L 89.921875 -128.328125 L 60.625 -127.859375 L 62.640625 -0.984375 Z M 31.5625 -0.5 "/></g></g></g><g fill="#ff914d" fill-opacity="1"><g transform="translate(334.884504, 174.484843)"><g><path d="M 11.71875 -0.015625 L 11.53125 -155.078125 L 83.4375 -155.171875 L 83.46875 -127.90625 L 42.671875 -127.84375 L 42.71875 -88.40625 L 78.546875 -88.453125 L 78.578125 -61.171875 L 42.75 -61.125 L 42.828125 -0.046875 Z M 11.71875 -0.015625 "/></g></g></g><g fill="#ff914d" fill-opacity="1"><g transform="translate(422.192448, 174.377686)"><g><path d="M 11.71875 0.140625 L 13.671875 -154.90625 L 44.78125 -154.5 L 43.1875 -27.625 L 82.40625 -27.140625 L 82.046875 1.03125 Z M 11.71875 0.140625 "/></g></g></g><g fill="#ff914d" fill-opacity="1"><g transform="translate(506.762039, 175.52439)"><g><path d="M 11.953125 0.28125 L 15.640625 -154.734375 L 46.5 -154 L 42.8125 1.015625 Z M 11.953125 0.28125 "/></g></g></g><g fill="#ff914d" fill-opacity="1"><g transform="translate(560.517948, 176.602527)"><g><path d="M 76.8125 2.859375 L 58.8125 -53.515625 L 57.03125 -53.578125 L 35.125 1.3125 L 2.703125 0.09375 L 38.015625 -76.609375 L 8.921875 -154.828125 L 42.25 -153.59375 L 59.859375 -99.5 L 61.4375 -99.4375 L 83.03125 -152.078125 L 115.453125 -150.875 L 81.078125 -75.921875 L 110.359375 4.109375 Z M 76.8125 2.859375 "/></g></g></g></svg>